# xmcd
#
# Track frame offsets:
#	182
#	17887
#	45880
#	75365
#	100935
#	128305
#
# Disc length: 2090 seconds
#
# Revision: 0
# Processed by: cddbd v1.4PL0 Copyright (c) Steve Scherf et al.
# Submitted via: EasyCDDAExtractor 4.6.9.1
#
DISCID=32082806
DTITLE=Club House - Deep In My Heart 
DYEAR=1900
DGENRE=
TTITLE0=Deep In My Heart(Radio Edit)
TTITLE1=Deep In My Heart(Extended Mix)
TTITLE2=Deep In My Heart(American Mix)
TTITLE3=Deep In My Heart(La-Da-De-Mix)
TTITLE4=Deep In My Heart(Wax Dub-Vocal)
TTITLE5=Deep In My Heart(Red Zone)
EXTD=
EXTT0=
EXTT1=
EXTT2=
EXTT3=
EXTT4=
EXTT5=
PLAYORDER=
